<?xml version="1.0" encoding="UTF-8" standalone="no"?>
<!-- Created with Inkscape (http://www.inkscape.org/) -->

<svg
   xmlns:dc="http://purl.org/dc/elements/1.1/"
   xmlns:cc="http://creativecommons.org/ns#"
   xmlns:rdf="http://www.w3.org/1999/02/22-rdf-syntax-ns#"
   xmlns:svg="http://www.w3.org/2000/svg"
   xmlns="http://www.w3.org/2000/svg"
   xmlns:sodipodi="http://sodipodi.sourceforge.net/DTD/sodipodi-0.dtd"
   xmlns:inkscape="http://www.inkscape.org/namespaces/inkscape"
   version="1.1"
   id="svg2"
   xml:space="preserve"
   width="94.278549"
   height="94.278549"
   viewBox="0 0 94.488519 93.786339"
   sodipodi:docname="qut_logo_light.svg"
   inkscape:version="0.92.5 (2060ec1f9f, 2020-04-08)"><metadata
     id="metadata175"><rdf:RDF><cc:Work
         rdf:about=""><dc:format>image/svg+xml</dc:format><dc:type
           rdf:resource="http://purl.org/dc/dcmitype/StillImage" /><dc:title></dc:title></cc:Work></rdf:RDF></metadata><defs
     id="defs6" /><sodipodi:namedview
     id="namedview4"
     pagecolor="#ffffff"
     bordercolor="#666666"
     borderopacity="1.0"
     inkscape:pageshadow="2"
     inkscape:pageopacity="0.0"
     inkscape:pagecheckerboard="true"
     showgrid="false"
     inkscape:zoom="7.2808853"
     inkscape:cx="91.266894"
     inkscape:cy="47.38865"
     inkscape:window-width="1920"
     inkscape:window-height="1016"
     inkscape:window-x="1920"
     inkscape:window-y="27"
     inkscape:window-maximized="1"
     inkscape:current-layer="g10"
     fit-margin-top="0"
     fit-margin-left="0"
     fit-margin-right="0"
     fit-margin-bottom="0" /><g
     id="g8"
     inkscape:groupmode="layer"
     inkscape:label="ink_ext_XXXXXX"
     transform="matrix(1.3333333,0,0,-1.3333333,5.2083332e-4,94.136108)"><g
       id="g10"
       transform="scale(0.1)"><path
         d="M -0.00390625,-0.00390625 H 708.66 V 708.66 H -0.00390625 V -0.00390625"
         style="fill:#ffffff;fill-opacity:1;fill-rule:nonzero;stroke:none"
         id="path46"
         inkscape:connector-curvature="0" /><path
         d="m 310.699,638.121 c 0,0 0.106,-181.578 0.106,-189.82 0,-13.352 16.328,-74.731 101.117,-74.731 84.789,0 98.308,61.211 98.308,74.25 v 108.524 l -65.039,68.097 V 454.848 c 0,-3.438 0.27,-20.649 -33.488,-20.649 -35.051,0 -35.051,16.973 -35.051,21.094 v 182.699 l -65.953,0.129"
         style="fill:#10427a;fill-opacity:1;fill-rule:nonzero;stroke:none"
         id="path48"
         inkscape:connector-curvature="0" /><path
         d="m 451.805,638.063 61.937,-64.141 h 44.813 V 377.527 h 67.66 v 196.395 h 52.277 v 64.16 l -226.687,-0.019"
         style="fill:#10427a;fill-opacity:1;fill-rule:nonzero;stroke:none"
         id="path50"
         inkscape:connector-curvature="0" /><path
         d="m 276.453,433.469 55.391,-56.313 H 257.219 L 135.453,503.965 h 71.867 l 19.219,-19.68 c 2.75,6.403 4.594,13.735 4.594,24.723 0,38.898 -32.973,68.668 -70.5,68.668 -37.531,0 -67.7541,-32.051 -67.7541,-69.59 0,-37.539 30.6761,-68.668 69.1211,-68.668 4.109,0 7.871,0.02 12.352,1.367 0.652,0.199 50.281,-53.289 49.91,-53.558 -14.172,-10.071 -41.203,-15.11 -62.262,-15.11 -74.1523,0 -131.8516,63.18 -131.8516,135.063 0,71.867 58.6133,132.289 133.6836,132.289 75.094,0 134.129,-60.879 134.129,-135.039 0.469,-29.762 -14.188,-60.43 -21.508,-70.961"
         style="fill:#10427a;fill-opacity:1;fill-rule:nonzero;stroke:none"
         id="path52"
         inkscape:connector-curvature="0" /></g></g></svg>